# xmcd CD database file
#
# Track frame offsets:
#	150
#	19012
#	35292
#
# Disc length: 723 seconds
#
# Revision: 0
# Processed by: cddbd v1.5.1PL0 Copyright (c) Steve Scherf et al.
# Submitted via: CDex 1.51
#
DISCID=1702d103
DTITLE=セカイイチ - ふりだしの歌
DYEAR=2004
DGENRE=ロック (日本)
TTITLE0=ふりだしの歌
TTITLE1=帰り道
TTITLE2=ミイラ
EXTD=YEAR: 2004
EXTT0=
EXTT1=
EXTT2=
PLAYORDER=
